<svg width="100" height="100" viewBox="0 0 100 100" fill="none" xmlns="http://www.w3.org/2000/svg">
<path fill-rule="evenodd" clip-rule="evenodd" d="M64.7426 15.4777C65.6472 13.5376 64.8124 11.2114 62.7917 10.5049C55.6022 7.99105 47.8272 7.65159 40.4459 9.52921C38.3714 10.0569 37.337 12.3015 38.0691 14.3131L46.7996 38.3C47.9807 41.5448 52.4953 41.742 53.9547 38.6124L64.7426 15.4777ZM10.5048 37.2085C11.2114 35.1878 13.5376 34.353 15.4776 35.2577L38.6123 46.0456C41.7419 47.5049 41.5448 52.0196 38.3 53.2006L14.3131 61.9311C12.3015 62.6633 10.0569 61.6289 9.5292 59.5543C7.65157 52.1731 7.99104 44.398 10.5048 37.2085ZM89.4953 62.7919C88.7888 64.8126 86.4626 65.6474 84.5225 64.7427L61.3878 53.9548C58.2582 52.4955 58.4553 47.9808 61.7002 46.7998L85.6871 38.0693C87.6986 37.3371 89.9432 38.3715 90.471 40.4461C92.3486 47.8273 92.0091 55.6024 89.4953 62.7919ZM37.2084 89.4954C35.1877 88.7889 34.3529 86.4627 35.2576 84.5226L46.0455 61.3879C47.5048 58.2583 52.0195 58.4554 53.2005 61.7003L61.931 85.6872C62.6632 87.6987 61.6288 89.9433 59.5542 90.471C52.173 92.3487 44.3979 92.0092 37.2084 89.4954ZM36.0136 15.1645C35.2815 13.153 33.0463 12.0984 31.1179 13.0276C24.2566 16.3339 18.5188 21.5916 14.6272 28.1386C13.5334 29.9787 14.3891 32.2973 16.3292 33.202L39.4639 43.9899C42.5935 45.4492 45.9252 42.3963 44.7442 39.1514L36.0136 15.1645ZM68.8823 86.9728C66.9538 87.9021 64.7186 86.8475 63.9865 84.836L55.256 60.8491C54.0749 57.6042 57.4067 54.5512 60.5363 56.0106L83.671 66.7985C85.611 67.7031 86.4668 70.0217 85.373 71.8618C81.4814 78.4088 75.7435 83.6666 68.8823 86.9728ZM15.1648 63.9867C13.1532 64.7188 12.0986 66.954 13.0279 68.8824C16.3341 75.7437 21.5919 81.4815 28.1389 85.3732C29.979 86.467 32.2976 85.6112 33.2022 83.6711L43.9901 60.5364C45.4495 57.4068 42.3965 54.0751 39.1517 55.2562L15.1648 63.9867ZM86.9723 31.118C87.9015 33.0464 86.847 35.2816 84.8354 36.0138L60.8485 44.7443C57.6036 45.9253 54.5507 42.5936 56.01 39.464L66.7979 16.3293C67.7026 14.3892 70.0212 13.5335 71.8613 14.6272C78.4083 18.5189 83.6661 24.2567 86.9723 31.118Z" fill="#ED872E"/>
</svg>
